<?xml version="1.0" encoding="UTF-8"?>
<svg id="Layer_1" data-name="Layer 1" xmlns="http://www.w3.org/2000/svg" viewBox="0 0 208.49 405.88">
  <path d="M52.72,39.13c2.5,23.12-7.19,43.13-21.64,44.69-14.45,1.56-28.19-15.92-30.69-39.04C-2.11,21.67,7.58,1.66,22.03.1s28.19,15.92,30.69,39.04ZM96.91,31.71c1.56,14.45-4.2,26.92-12.87,27.86s-16.96-10.02-18.52-24.47,4.2-26.92,12.87-27.86,16.96,10.02,18.52,24.47ZM142.24,34.76c1.25,11.56-4.77,21.69-13.44,22.63-8.67.94-16.71-7.68-17.96-19.24s4.77-21.69,13.44-22.63,16.71,7.68,17.96,19.24ZM181.41,54.35c1.25,11.56-4.77,21.69-13.44,22.63s-16.71-7.68-17.96-19.24,4.77-21.69,13.44-22.63,16.71,7.68,17.96,19.24ZM208.35,83.2c.94,8.67-2.99,16.2-8.77,16.83s-11.22-5.9-12.16-14.57,2.99-16.2,8.77-16.83,11.22,5.9,12.16,14.57ZM152.54,277.16c-18.54,43.27,14.7,136.05-60.26,128.27-97.8-10.16,39.33-126-19.78-183.15C-13.12,139.51,42.82,45.5,142.1,82.42c0,0,86.55,17.12,10.45,194.74Z"/>
</svg>