<?xml version="1.0" encoding="UTF-8"?>
<svg id="Layer_1" xmlns="http://www.w3.org/2000/svg" version="1.1" viewBox="0 0 436.64 665.85">
  <!-- Generator: Adobe Illustrator 29.1.0, SVG Export Plug-In . SVG Version: 2.1.0 Build 142)  -->
  <circle cx="401.9" cy="142.54" r="34.74"/>
  <circle cx="70.15" cy="70.15" r="70.14" transform="translate(-29.06 70.15) rotate(-45)"/>
  <circle cx="215.26" cy="50.92" r="43.75" transform="translate(-5.63 62.65) rotate(-16.35)"/>
  <path d="M147.97,535.46c-8.12,19.24-9.92,41.29-3.59,62.88,14.6,49.78,66.81,78.29,116.58,63.69,39.67-11.64,65.76-47.17,67.35-86.32l56.09-230.96-.86-.21c3.67-13.88,5.28-28.39,4.59-43.12.49-16.79-1.54-33.92-6.52-50.9-25.5-86.94-116.65-136.75-203.6-111.25-86.94,25.5-136.75,116.65-111.25,203.6,9.46,32.25,27.98,59.36,51.95,79.44l-.15.47c12.85,13.22,22.8,29.63,28.35,48.54,6.36,21.69,6.03,43.72.42,64.01l.64.12Z"/>
  <circle cx="322.77" cy="89.12" r="34.74"/>
</svg>