<?xml version="1.0" encoding="UTF-8"?>
<svg id="Layer_1" data-name="Layer 1" xmlns="http://www.w3.org/2000/svg" viewBox="0 0 433.05 672.74">
  <circle cx="34.74" cy="157.4" r="34.74"/>
  <circle cx="362.89" cy="70.15" r="70.14"/>
  <circle cx="217.07" cy="57.47" r="43.75" transform="translate(109.59 254.63) rotate(-76.23)"/>
  <path d="M306.74,538.34c-6.52-20.02-7.84-42.01-2.46-63.97,4.69-19.15,13.89-35.98,26.13-49.77l-.17-.46c23.04-21.14,40.32-49.05,48.32-81.7,21.56-88.01-32.31-176.82-120.3-198.38-88.01-21.56-176.82,32.3-198.38,120.3-4.21,17.19-5.46,34.39-4.22,51.15-.02,14.75,2.23,29.17,6.53,42.87l-.85.24,66.44,228.2c3.35,39.04,31.01,73.36,71.17,83.2,50.38,12.34,101.25-18.49,113.6-68.87,5.36-21.86,2.56-43.8-6.42-62.66l.63-.15Z"/>
  <circle cx="111.39" cy="100.47" r="34.74"/>
</svg>