<?xml version="1.0" encoding="UTF-8"?>
<svg id="Layer_1" data-name="Layer 1" xmlns="http://www.w3.org/2000/svg" viewBox="0 0 208.49 405.88">
  <path d="M186.46.1c14.45,1.56,24.14,21.57,21.64,44.69s-16.24,40.6-30.69,39.04c-14.45-1.56-24.14-21.57-21.64-44.69C158.27,16.01,172.01-1.46,186.46.1ZM130.1,7.24c8.67.94,14.43,13.41,12.87,27.86-1.56,14.45-9.85,25.4-18.52,24.47s-14.43-13.41-12.87-27.86c1.56-14.45,9.85-25.4,18.52-24.47ZM84.21,15.52c8.67.94,14.69,11.07,13.44,22.63-1.25,11.56-9.29,20.17-17.96,19.24s-14.69-11.07-13.44-22.63,9.29-20.17,17.96-19.24ZM45.04,35.11c8.67.94,14.69,11.07,13.44,22.63s-9.29,20.17-17.96,19.24-14.69-11.07-13.44-22.63,9.29-20.17,17.96-19.24ZM12.3,68.63c5.78.62,9.71,8.16,8.77,16.83s-6.38,15.19-12.16,14.57S-.8,91.87.14,83.2s6.38-15.19,12.16-14.57ZM66.39,82.42c99.28-36.92,155.22,57.09,69.59,139.86-59.11,57.14,78.01,172.99-19.78,183.15-74.95,7.78-41.72-85-60.26-128.27-76.1-177.62,10.45-194.74,10.45-194.74Z"/>
</svg>